<?xml version="1.0" encoding="UTF-8" standalone="no"?>
<svg width="51px" height="49px" viewBox="0 0 51 49" version="1.1" xmlns="http://www.w3.org/2000/svg" xmlns:xlink="http://www.w3.org/1999/xlink" xmlns:sketch="http://www.bohemiancoding.com/sketch/ns">
    <!-- Generator: Sketch 3.5.1 (25234) - http://www.bohemiancoding.com/sketch -->
    <title>Github</title>
    <desc>Created with Sketch.</desc>
    <defs></defs>
    <g id="Page-1" stroke="none" stroke-width="1" fill="none" fill-rule="evenodd" sketch:type="MSPage">
        <g id="v5.1_ZM_Landing" sketch:type="MSArtboardGroup" transform="translate(-695.000000, -2362.000000)" fill="#4183C4">
            <g id="Group" sketch:type="MSLayerGroup" transform="translate(140.000000, 2288.000000)">
                <path d="M580.012205,74 C566.199154,74 555,85.1992756 555,99.0122051 C555,110.062864 562.166725,119.440377 572.106284,122.746117 C573.356045,122.978147 573.759154,122.204712 573.759154,121.543102 L573.759154,116.885975 C566.801754,118.400428 565.352382,113.936599 565.352382,113.936599 C564.216633,111.044169 562.576148,110.27474 562.576148,110.27474 C560.306473,108.72374 562.747106,108.754216 562.747106,108.754216 C565.259011,108.931366 566.581987,111.333145 566.581987,111.333145 C568.812808,115.155762 572.431929,114.050611 573.860903,113.411464 C574.084798,111.795142 574.731959,110.692055 575.44857,110.067114 C569.89149,109.436102 564.05369,107.290638 564.05369,97.7054995 C564.05369,94.9738268 565.030744,92.7428838 566.630797,90.9923937 C566.370233,90.3613819 565.515204,87.8170578 566.871084,84.3729014 C566.871084,84.3729014 568.971745,83.7012145 573.750897,86.9376238 C575.747624,86.3839556 577.887139,86.1051788 580.012205,86.0949796 C582.137271,86.1051788 584.28055,86.384077 586.277398,86.9376238 C591.052787,83.7012145 593.149198,84.3729014 593.149198,84.3729014 C594.511149,87.8169364 593.654056,90.3612605 593.395556,90.9923937 C594.999616,92.7428838 595.970478,94.9738268 595.970478,97.7054995 C595.970478,107.312979 590.118472,109.427846 584.549371,110.046716 C585.444832,110.822337 586.265378,112.346746 586.265378,114.679438 L586.265378,121.543102 C586.265378,122.208718 586.66618,122.988346 587.934396,122.744174 C597.867641,119.432485 605.02441,110.060922 605.02441,99.0123265 C605.02441,85.199397 593.825013,74 580.012205,74 L580.012205,74 Z" id="Github" sketch:type="MSShapeGroup"></path>
            </g>
        </g>
    </g>
</svg>