<?xml version="1.0" encoding="UTF-8" standalone="no"?>
<svg width="120px" height="120px" viewBox="0 0 120 120" version="1.1" xmlns="http://www.w3.org/2000/svg" xmlns:xlink="http://www.w3.org/1999/xlink" xmlns:sketch="http://www.bohemiancoding.com/sketch/ns">
    <!-- Generator: Sketch 3.5.1 (25234) - http://www.bohemiancoding.com/sketch -->
    <title>Home Security</title>
    <desc>Created with Sketch.</desc>
    <defs></defs>
    <g id="Page-1" stroke="none" stroke-width="1" fill="none" fill-rule="evenodd" sketch:type="MSPage">
        <g id="v5.1_ZM_Landing" sketch:type="MSArtboardGroup" transform="translate(-233.000000, -1042.000000)">
            <g id="Group" sketch:type="MSLayerGroup" transform="translate(176.000000, 854.000000)">
                <g id="Home-Security" sketch:type="MSShapeGroup">
                    <g transform="translate(0.000000, 153.000000)">
                        <g>
                            <g transform="translate(57.000000, 35.000000)">
                                <path d="M3.4338953,63.3274179 L13.4161491,63.3274179 L13.4161491,116.566105 C13.4161491,118.431233 14.8784383,119.893523 16.743567,119.893523 L103.256433,119.893523 C105.121562,119.893523 106.583851,118.431233 106.583851,116.566105 L106.583851,63.3274179 L116.566105,63.3274179 C119.490683,63.3274179 120.961846,59.7373558 118.965395,57.6007098 L62.3992902,1.03460515 C61.068323,-0.296362023 58.9387755,-0.296362023 57.7409051,1.03460515 L1.03460515,57.6007098 C-0.961845608,59.7373558 0.50931677,63.3274179 3.4338953,63.3274179 L3.4338953,63.3274179 Z M60,8.09228039 L108.580302,56.6725821 L103.256433,56.6725821 C101.391304,56.6725821 99.9290151,58.1348713 99.9290151,60 L99.9290151,113.238687 L20.0709849,113.238687 L20.0709849,60 C20.0709849,58.1348713 18.6086957,56.6725821 16.743567,56.6725821 L11.4196983,56.6725821 L60,8.09228039 Z" id="Fill-1" stroke="#FFFFFF" fill="#03A9F4"></path>
                                <path d="M40.0354925,96.6015972 L79.9645075,96.6015972 C81.8296362,96.6015972 83.2919255,95.1393079 83.2919255,93.2741792 L83.2919255,60 C83.2919255,58.1348713 81.8296362,56.6725821 79.9645075,56.6725821 L76.6370896,56.6725821 L76.6370896,53.3451642 C76.6370896,44.1597161 69.1854481,36.7080745 60,36.7080745 C50.8145519,36.7080745 43.3629104,44.1597161 43.3629104,53.3451642 L43.3629104,56.6725821 L40.0354925,56.6725821 C38.1703638,56.6725821 36.7080745,58.1348713 36.7080745,60 L36.7080745,93.2741792 C36.7080745,95.1393079 38.1703638,96.6015972 40.0354925,96.6015972 L40.0354925,96.6015972 Z M50.0177462,53.3451642 C50.0177462,47.8899734 54.5448092,43.3629104 60,43.3629104 C65.4551908,43.3629104 69.9822538,47.8899734 69.9822538,53.3451642 L69.9822538,56.6725821 L50.0177462,56.6725821 L50.0177462,53.3451642 Z M43.3629104,63.3274179 L76.6370896,63.3274179 L76.6370896,89.9467613 L43.3629104,89.9467613 L43.3629104,63.3274179 Z" id="Fill-2" fill="#6B6F7A"></path>
                                <path d="M60,66.6548358 C56.2697427,66.6548358 53.3451642,69.5794144 53.3451642,73.3096717 C53.3451642,75.7089618 54.6761313,77.8367347 56.6725821,79.0363798 L56.6725821,83.2919255 C56.6725821,85.1570541 58.1348713,86.6193434 60,86.6193434 C61.8651287,86.6193434 63.3274179,85.1570541 63.3274179,83.2919255 L63.3274179,79.0363798 C65.3238687,77.8367347 66.6548358,75.7089618 66.6548358,73.3096717 C66.6548358,69.5794144 63.7302573,66.6548358 60,66.6548358 L60,66.6548358 Z" id="Fill-3" fill="#6B6F7A"></path>
                            </g>
                        </g>
                    </g>
                </g>
            </g>
        </g>
    </g>
</svg>