<?xml version="1.0" encoding="UTF-8" standalone="no"?>
<svg width="116px" height="119px" viewBox="0 0 116 119" version="1.1" xmlns="http://www.w3.org/2000/svg" xmlns:xlink="http://www.w3.org/1999/xlink" xmlns:sketch="http://www.bohemiancoding.com/sketch/ns">
    <!-- Generator: Sketch 3.5.1 (25234) - http://www.bohemiancoding.com/sketch -->
    <title>Industrial &amp; commercial Security</title>
    <desc>Created with Sketch.</desc>
    <defs></defs>
    <g id="Page-1" stroke="none" stroke-width="1" fill="none" fill-rule="evenodd" sketch:type="MSPage">
        <g id="v5.1_ZM_Landing" sketch:type="MSArtboardGroup" transform="translate(-798.000000, -1042.000000)">
            <g id="Group" sketch:type="MSLayerGroup" transform="translate(176.000000, 854.000000)">
                <g id="Industrial-&amp;-commercial-Security" sketch:type="MSShapeGroup">
                    <g transform="translate(0.000000, 153.000000)">
                        <g>
                            <g transform="translate(622.000000, 35.000000)">
                                <path d="M9.9145191,67.3569024 L9.9145191,69.9747475 L14.4206588,69.9747475 L14.4206588,67.3569024 C14.4206588,61.9461279 18.8340448,57.5387205 24.2559157,57.5387205 C29.6777866,57.5387205 34.0911726,61.9461279 34.0911726,67.3569024 L34.0911726,69.9747475 L38.5973123,69.9747475 L38.5973123,67.3569024 C38.5973123,59.46633 32.1602108,53.0420875 24.2559157,53.0420875 C16.3499341,53.047138 9.9145191,59.46633 9.9145191,67.3569024 L9.9145191,67.3569024 Z" id="Fill-1" fill="#6B6F7A"></path>
                                <path d="M44.2299868,77.0976431 C44.2299868,78.5050505 43.0899605,79.6481481 41.6733597,79.6481481 L6.83847167,79.6481481 C5.4286166,79.6481481 4.28184453,78.5050505 4.28184453,77.0976431 L4.28184453,74.0976431 C4.28184453,72.6902357 5.4286166,71.547138 6.83847167,71.547138 L41.6801054,71.547138 C43.0899605,71.547138 44.2350461,72.6902357 44.2350461,74.0976431 L44.2350461,77.0976431 L44.2299868,77.0976431 Z" id="Fill-2" fill="#6B6F7A"></path>
                                <path d="M44.2687747,83.9949495 C44.2687747,82.5875421 43.0899605,81.2794613 41.6801054,81.2794613 L6.83847167,81.2794613 C5.4286166,81.2794613 3.7944664,82.5875421 3.7944664,83.9949495 L3.7944664,86.9882155 C3.7944664,87 3.80121212,87.013468 3.80121212,87.026936 C3.80121212,87.0538721 3.7944664,87.0858586 3.7944664,87.1127946 L3.7944664,93.7676768 C3.7944664,96.8973064 5.4286166,98.956229 6.83847167,98.956229 L41.6801054,98.956229 C43.0899605,98.956229 44.2687747,96.8973064 44.2687747,93.7676768 L44.2687747,87.1127946 C44.2687747,87.0858586 44.262029,87.0606061 44.262029,87.026936 C44.262029,87.013468 44.2687747,87 44.2687747,86.9882155 L44.2687747,83.9949495 Z" id="Fill-3" fill="#6B6F7A"></path>
                                <path d="M25.3419763,79.7272727 C26.2846904,79.7272727 27.048643,80.003367 27.048643,80.3383838 L27.048643,88.6784512 C27.048643,89.020202 26.2846904,89.2895623 25.3419763,89.2895623 L23.3334387,89.2895623 C22.3907246,89.2895623 21.6267721,89.020202 21.6267721,88.6784512 L21.6267721,80.3383838 C21.6267721,80.003367 22.3907246,79.7272727 23.3334387,79.7272727 L25.3419763,79.7272727 Z" id="Fill-4" fill="#6B6F7A"></path>
                                <path d="M26.3504611,77.7878788 C28.3202108,77.7878788 29.907141,77.9781145 29.907141,78.2154882 L29.907141,84.0808081 C29.907141,84.3181818 28.3134651,84.5151515 26.3504611,84.5151515 L22.1681159,84.5151515 C20.2034256,84.5151515 18.6097497,84.3249158 18.6097497,84.0808081 L18.6097497,78.2154882 C18.6097497,77.9781145 20.2034256,77.7878788 22.1681159,77.7878788 L26.3504611,77.7878788 Z" id="Fill-5" fill="#6B6F7A"></path>
                                <path d="M109.676943,82.6077441 C107.351357,77.8670034 103.749144,74.979798 94.9071937,74.979798 L93.0959684,74.979798 C89.8816337,74.979798 88.0704084,75.2154882 85.3367062,76.0774411 C80.6062714,77.5639731 63.0690909,98.6010101 63.0690909,98.6010101 C61.9965217,99.6666667 61.9965217,101.402357 63.0690909,102.468013 C63.6036891,103 64.3018709,103.26936 65.0000527,103.26936 C65.7049802,103.26936 66.4031621,103.006734 66.9428195,102.468013 L83.6232938,87.1060606 C83.6502767,87.5 83.9588933,103.434343 83.9588933,103.434343 L104.025718,103.434343 L104.45913,89.520202 L105.80996,103.434343 L112.306087,103.434343 C111.476364,94.7609428 110.361634,84.0016835 109.676943,82.6077441 L109.676943,82.6077441 Z M89.6910672,103.309764 L85.1259025,103.309764 L100.276785,76.2626263 C101.784453,76.5639731 103.030725,77.0252525 104.098235,77.5909091 L89.6910672,103.309764 Z" id="Fill-6" fill="#6B6F7A"></path>
                                <path d="M103.470883,63.2996633 C103.470883,68.5286195 99.2295125,72.7626263 93.9982082,72.7626263 L93.9914625,72.7626263 L93.9796574,72.7626263 C88.7550988,72.7626263 84.5052964,68.5286195 84.5052964,63.2996633 C84.5052964,62.2878788 84.7093544,61.3265993 84.9994203,60.4124579 L102.983505,60.4124579 C103.27357,61.3215488 103.470883,62.2878788 103.470883,63.2996633 L103.470883,63.2996633 Z" id="Fill-7" fill="#6B6F7A"></path>
                                <path d="M103.760949,51.5555556 L102.976759,58.952862 L84.9926746,58.952862 L79.5320158,49.4579125 L84.5052964,51.7070707 L103.760949,51.5555556 Z" id="Fill-8" fill="#6B6F7A"></path>
                                <path d="M70.2768906,106.617845 C69.862029,106.814815 69.3746509,106.631313 69.1773386,106.222222 L55.9557312,78.1565657 C55.7567325,77.7407407 55.9354941,77.2542088 56.3503557,77.0572391 L56.4161265,77.0319865 C56.8309881,76.8400673 57.3183663,77.0117845 57.5156785,77.4259259 L70.7372859,105.493266 C70.9295389,105.907407 70.7575231,106.393939 70.3426614,106.590909 L70.2768906,106.617845 Z" id="Fill-9" fill="#6B6F7A"></path>
                                <path d="M80.2706719,26.7171717 L78.833834,29.7087542 C78.5774967,30.2356902 77.9383399,30.4646465 77.4104875,30.2087542 L62.1668511,22.9427609 C61.930751,23.1262626 61.679473,23.2845118 61.4028986,23.4158249 L61.4028986,35.3181818 C61.4028986,36.2255892 60.6591831,36.969697 59.7501976,36.969697 C58.8412121,36.969697 58.0958103,36.2255892 58.0958103,35.3181818 L58.0958103,31.043771 L39.5383399,37.3636364 L39.5383399,40.1127946 L35.4672991,40.1127946 L35.4672991,23.1599327 L39.5383399,23.1599327 L39.5383399,34.1683502 L58.0823188,27.7828283 L58.0823188,23.4158249 C56.8174967,22.8299663 55.9422398,21.5875421 55.9422398,20.1531987 C55.9422398,20.0942761 55.9422398,20.0420875 55.9489855,19.983165 L43.6161265,14.1043771 C43.0832148,13.8535354 42.8589196,13.2087542 43.1152569,12.6835017 L48.867668,0.695286195 C49.1240053,0.168350168 49.7631621,-0.0538720539 50.2893281,0.195286195 L83.8998682,16.2154882 L83.906614,16.2154882 C84.0651383,16.2878788 89.097444,18.530303 89.0586561,18.8855219 C89.0181818,19.2457912 87.5290646,19.7794613 85.928643,18.8316498 C84.7161001,18.2272727 84.1966798,18.6616162 84.1966798,18.6616162 L80.2706719,26.7171717 Z" id="Fill-10" fill="#6B6F7A"></path>
                                <path d="M63.3406061,17.8383838 C63.3406061,21.2710438 58.1818182,21.2710438 58.1818182,17.8383838 C58.1818182,14.3989899 63.3406061,14.3989899 63.3406061,17.8383838" id="Fill-11" fill="#6B6F7A"></path>
                                <path d="M62.5361792,17.8383838 C62.5361792,20.2003367 58.9862451,20.2003367 58.9862451,17.8383838 C58.9862451,15.4781145 62.5361792,15.4781145 62.5361792,17.8383838" id="Fill-12" fill="#6B6F7A"></path>
                                <path d="M2.5886693,63.4057239 C1.54139657,63.4057239 0.6914361,62.5572391 0.6914361,61.5117845 C0.6914361,38.9292929 14.0310935,18.3653199 34.6831094,9.11952862 C35.6393149,8.69191919 36.7591041,9.11952862 37.1942029,10.0723906 C37.622556,11.026936 37.1942029,12.1515152 36.2379974,12.5774411 C16.950303,21.2053872 4.4859025,40.4158249 4.4859025,61.5117845 C4.4859025,62.5572391 3.63594203,63.4057239 2.5886693,63.4057239 L2.5886693,63.4057239 Z" id="Fill-13" fill="#03A9F4"></path>
                                <path d="M58.1885639,118.895623 L58.1750725,118.895623 C44.3345455,118.895623 30.9679051,113.917508 20.52722,104.875421 C19.7362846,104.190236 19.6502767,102.993266 20.3366535,102.205387 C21.0213439,101.415825 22.2203953,101.329966 23.0113307,102.013468 C32.7605797,110.457912 45.2502767,115.107744 58.1750725,115.107744 L58.1885639,115.107744 C67.2126482,115.107744 76.1338603,112.83165 83.9858762,108.525253 C84.9083531,108.018519 86.0601845,108.353535 86.561054,109.274411 C87.0686693,110.195286 86.7330698,111.345118 85.8105929,111.845118 C77.4037418,116.461279 67.8450593,118.895623 58.1885639,118.895623 L58.1885639,118.895623 Z" id="Fill-14" fill="#03A9F4"></path>
                                <path d="M111.963742,77.4915825 C111.805217,77.4915825 111.639947,77.4713805 111.481423,77.4326599 C110.467879,77.1632997 109.862451,76.1296296 110.132279,75.1178451 C111.290856,70.7053872 111.877734,66.1279461 111.877734,61.5117845 C111.877734,46.4326599 105.46087,31.9646465 94.2680369,21.8249158 C93.4922793,21.1212121 93.4315679,19.9242424 94.1364954,19.1481481 C94.8414229,18.3720539 96.0404743,18.3131313 96.8179183,19.016835 C108.801686,29.8737374 115.6722,45.3602694 115.6722,61.5117845 C115.6722,66.4494949 115.039789,71.3552189 113.800264,76.0774411 C113.577655,76.9259259 112.806957,77.4915825 111.963742,77.4915825 L111.963742,77.4915825 Z" id="Fill-15" fill="#03A9F4"></path>
                                <path d="M84.1764427,22.4292929 C84.4597628,22.5606061 84.5778129,22.8956229 84.4462714,23.1717172 L81.1931489,30.0774411 C81.0599209,30.3535354 80.7243215,30.4781145 80.447747,30.3468013 L79.8558103,30.0707071 C79.5724901,29.9393939 79.4527536,29.6043771 79.5842951,29.3282828 L82.8391041,22.4225589 C82.9706456,22.1397306 83.3011858,22.0218855 83.5828195,22.1531987 L84.1764427,22.4292929 Z" id="Fill-16" fill="#6B6F7A"></path>
                            </g>
                        </g>
                    </g>
                </g>
            </g>
        </g>
    </g>
</svg>