<?xml version="1.0" encoding="UTF-8" standalone="no"?>
<svg width="126px" height="81px" viewBox="0 0 126 81" version="1.1" xmlns="http://www.w3.org/2000/svg" xmlns:xlink="http://www.w3.org/1999/xlink" xmlns:sketch="http://www.bohemiancoding.com/sketch/ns">
    <!-- Generator: Sketch 3.5.1 (25234) - http://www.bohemiancoding.com/sketch -->
    <title>Logo</title>
    <desc>Created with Sketch.</desc>
    <defs></defs>
    <g id="Page-1" stroke="none" stroke-width="1" fill="none" fill-rule="evenodd" sketch:type="MSPage">
        <g id="v5.1_ZM_Landing" sketch:type="MSArtboardGroup" transform="translate(-448.000000, -202.000000)">
            <g id="Group-3" sketch:type="MSLayerGroup" transform="translate(448.000000, 202.000000)">
                <g id="Logo" sketch:type="MSShapeGroup">
                    <path d="M0.0163040308,0.0516837794 L5.33994461,75.4994303 L107.487064,80.5178797 L125.368382,25.4579799 C127.925634,17.5837276 123.306579,10.6263963 115.056358,9.91876775 L0.0163040308,0.0516837794 Z" id="Path-33" fill="#03A9F4"></path>
                    <path d="M81.244837,45.6275515 L64.8500425,20.0231401 C63.5062069,17.597459 60.2810014,18.3386393 60.2810014,21.2359806 L60.2810014,60.046878 C60.2810014,63.2811194 65.1860014,63.2811194 65.1860014,60.046878 L65.1860014,29.4563443 L78.8931247,50.8831939 C79.9010014,52.8372147 82.4542891,52.8372147 83.5293575,50.8831939 L97.2364808,29.3889643 L97.2364808,60.046878 C97.2364808,63.2811194 102.141481,63.2811194 102.141481,60.046878 L102.141481,21.2359806 C102.141481,18.4060193 99.0506589,17.597459 97.505248,20.0231401 L81.244837,45.6275515 Z" id="ZM" fill="#FFFFFF"></path>
                    <path d="M52.4867548,23.9878614 C54.0321658,22.0338405 53.2930562,19.9450596 50.5381932,19.9450596 L18.5549055,19.9450596 C15.5312754,20.1471997 15.5984671,24.3921416 18.5549055,24.3921416 L45.7675767,24.3921416 L15.6656589,58.958097 C14.1874397,60.7773578 14.9937411,62.8661388 17.6142206,62.8661388 L62.7521658,62.8661388 C65.9773712,62.6639987 65.9101795,58.2169167 62.7521658,58.2169167 L22.1160699,58.2169167 L52.4867548,23.9878614 Z" id="Path" fill="#FFFFFF"></path>
                </g>
            </g>
        </g>
    </g>
</svg>