<?xml version="1.0" encoding="UTF-8" standalone="no"?>
<svg width="115px" height="115px" viewBox="0 0 115 115" version="1.1" xmlns="http://www.w3.org/2000/svg" xmlns:xlink="http://www.w3.org/1999/xlink" xmlns:sketch="http://www.bohemiancoding.com/sketch/ns">
    <!-- Generator: Sketch 3.5.1 (25234) - http://www.bohemiancoding.com/sketch -->
    <title>Nanny Cams</title>
    <desc>Created with Sketch.</desc>
    <defs>
        <ellipse id="path-1" cx="50.622745" cy="50.0993025" rx="49.0656584" ry="49.3599053"></ellipse>
    </defs>
    <g id="Page-1" stroke="none" stroke-width="1" fill="none" fill-rule="evenodd" sketch:type="MSPage">
        <g id="Styles" sketch:type="MSArtboardGroup" transform="translate(-589.000000, -1450.000000)">
            <g id="Nanny-Cams" sketch:type="MSLayerGroup" transform="translate(589.000000, 1451.000000)">
                <g id="Page-1">
                    <g>
                        <g id="Fill-1-+-Fill-2-+-Oval-19">
                            <g id="Fill-1-+-Fill-2" transform="translate(0.053458, 4.191389)">
                                <g transform="translate(1.396448, 1.134405)"></g>
                            </g>
                            <g id="Group" transform="translate(8.013381, 0.710242)">
                                <ellipse id="Mask" stroke="#0399DD" stroke-width="8" stroke-dasharray="1" fill="#FFFFFF" sketch:type="MSShapeGroup" cx="49.6179157" cy="55.8338945" rx="49.137931" ry="49.137931"></ellipse>
                                <mask id="mask-2" sketch:name="Mask" fill="white">
                                    <use xlink:href="#path-1"></use>
                                </mask>
                                <use id="Mask" sketch:type="MSShapeGroup" xlink:href="#path-1"></use>
                                <path d="M61.3129589,102.060273 C61.1667581,102.119104 61.0134993,102.147506 60.8602405,102.147506 C60.3641659,102.147506 59.8912818,101.84625 59.6976918,101.350244 C59.4456214,100.705131 59.7612135,99.9758287 60.4034889,99.726304 L76.7285767,93.1524423 C80.2696618,91.6197922 81.2184548,88.6640396 80.4662767,86.2184941 L80.474343,86.2154511 L73.8136345,66.0272751 C72.6914171,62.6353613 70.0719014,57.0971288 64.4477065,54.8503916 C61.7616443,57.7747001 57.9331989,59.6126629 53.6681676,59.6126629 C48.9302523,59.6126629 44.7277345,57.3466535 42.0416722,53.8401206 L40.6270531,53.8401206 C33.5579906,53.903009 29.9533838,55.9915109 26.9053484,61.2883333 L18.0314618,83.409819 C16.5109731,85.7985622 16.7832092,89.4207285 20.3787414,91.8612024 L26.9527376,96.1163096 L22.604019,108.977992 L78.5959143,108.977992 L74.0223488,97.0434056 L61.3129589,102.060273 Z M53.2073829,80.5873397 L53.2305734,80.5792251 C53.2305734,80.5792251 55.5153396,83.4994762 55.5314721,85.6194224 C55.5344969,86.2655495 55.40947,86.6418653 55.2673023,86.9076193 L50.7814573,88.8175995 L39.985786,93.3181741 C39.2729308,93.6234869 38.697202,94.00386 38.184995,94.41162 C37.0547113,93.8293956 36.137175,92.8272392 35.7157133,91.5430996 C35.1329265,89.7680251 35.9012371,87.7870419 35.9405601,87.6399643 C36.4678914,85.6944827 37.1222661,83.4883186 37.6415312,81.5468943 C35.5745538,81.1147904 33.5025351,80.6826866 31.4345495,80.2424681 C28.2756031,79.5851833 29.1860815,74.9294165 32.3480526,75.5948158 C35.4202868,76.2368856 38.3826182,76.7917232 41.4548523,77.433793 C42.0961194,77.5646414 42.7736847,77.8303954 43.1406992,78.1864246 C43.8495212,78.8842825 44.1328483,79.8661523 43.7779332,81.1543492 C43.5500615,81.9901557 43.3252147,82.8259622 43.1003679,83.6587258 C44.5109539,83.1911204 46.7594219,82.4821049 48.4019127,81.9668262 C47.7132563,80.0527887 47.1768505,77.77055 47.4137967,75.4923687 C48.0711963,69.2755506 53.1478943,66.6798845 53.3606417,66.5693227 C54.5978033,65.9515968 56.0900601,66.4628182 56.7051119,67.7023274 C57.3151223,68.9469082 56.8109815,70.4521714 55.577853,71.0668543 C55.4840828,71.1135134 52.738532,72.5954471 52.3765589,76.0188051 C52.2222918,77.4692945 52.6477866,79.1419219 53.2073829,80.5873397 L53.2073829,80.5873397 Z M56.31894,80.6664573 C55.058588,76.8353393 57.1306067,72.6989086 60.9348533,71.4350555 C64.743133,70.1671451 68.8478475,72.2434752 70.1041664,76.0705358 C70.6083073,77.6082575 70.5336944,79.1774234 70.0648435,80.6076263 L59.9971514,84.8901203 C58.3193708,84.0583711 56.9531492,82.5926667 56.31894,80.6664573 L56.31894,80.6664573 Z" id="Fill-1" fill="#6B6F7A" sketch:type="MSShapeGroup" mask="url(#mask-2)"></path>
                                <path d="M53.7011019,33.5508889 C48.7695965,33.5508889 44.5711118,36.6293753 42.849975,40.975772 C42.1613187,39.7839363 41.0622917,38.377063 39.4752564,37.9287299 C36.194308,37.0056911 32.5786101,38.8324964 30.7979847,41.8085356 C29.0183677,44.7835605 26.9382827,50.8259141 23.8973053,51.9994919 C21.5268352,52.9144161 30.3926555,54.4916966 34.2483245,51.9629761 C36.8043184,50.2913631 36.6863494,46.9237932 39.3996353,46.1346457 C40.1951695,45.9054076 41.1641282,46.0910296 42.1139294,46.4206863 C42.6765506,52.3910227 47.6161223,57.0782337 53.6970688,57.0782337 C60.1561209,57.0782337 65.3911191,51.8087982 65.3911191,45.3110112 C65.3911191,38.8132241 60.160154,33.5508889 53.7011019,33.5508889 L53.7011019,33.5508889 Z" id="Fill-2" fill="#6B6F7A" sketch:type="MSShapeGroup" mask="url(#mask-2)"></path>
                            </g>
                        </g>
                    </g>
                </g>
                <circle id="Oval-21" fill="#03A8F2" sketch:type="MSShapeGroup" cx="108" cy="105" r="5"></circle>
            </g>
        </g>
    </g>
</svg>