<?xml version="1.0" encoding="UTF-8" standalone="no"?>
<svg width="51px" height="51px" viewBox="0 0 51 51" version="1.1" xmlns="http://www.w3.org/2000/svg" xmlns:xlink="http://www.w3.org/1999/xlink" xmlns:sketch="http://www.bohemiancoding.com/sketch/ns">
    <!-- Generator: Sketch 3.5.2 (25235) - http://www.bohemiancoding.com/sketch -->
    <title>Reditt</title>
    <desc>Created with Sketch.</desc>
    <defs></defs>
    <g id="Page-1" stroke="none" stroke-width="1" fill="none" fill-rule="evenodd" sketch:type="MSPage">
        <g id="Ui_Guide" sketch:type="MSArtboardGroup" transform="translate(-292.000000, -1177.000000)">
            <g id="Group-6" sketch:type="MSLayerGroup" transform="translate(67.000000, 1177.000000)">
                <g id="Group-4" sketch:type="MSShapeGroup">
                    <g id="Reditt" transform="translate(225.000000, 0.000000)">
                        <path d="M25.22,0.550545455 C11.2950303,0.550545455 0.00787878788,11.837697 0.00787878788,25.7626667 C0.00787878788,39.6860606 11.2950303,50.9747879 25.22,50.9747879 C39.1449697,50.9747879 50.4321212,39.6860606 50.4321212,25.7626667 C50.4321212,11.8392727 39.1449697,0.550545455 25.22,0.550545455 L25.22,0.550545455 Z" id="Shape" fill="#FF4500"></path>
                        <path d="M20.5226667,30.6947879 C19.0162424,30.6947879 17.7918788,29.4704242 17.7918788,27.9655758 C17.7918788,26.4607273 19.0162424,25.2363636 20.5226667,25.2363636 C22.0275152,25.2363636 23.2518788,26.4607273 23.2518788,27.9655758 C23.2518788,29.4704242 22.0275152,30.6947879 20.5226667,30.6947879 L20.5226667,30.6947879 Z M40.2763636,28.7912727 C40.3173333,29.1032727 40.3393939,29.4105455 40.3393939,29.7099394 C40.3393939,35.3858182 33.5494545,40.0043636 25.2010909,40.0043636 C16.8527273,40.0043636 10.0627879,35.3858182 10.0627879,29.7099394 C10.0627879,29.3995152 10.0864242,29.0780606 10.1305455,28.7518788 C9.06060606,27.9624242 8.42872727,26.7254545 8.42872727,25.3939394 C8.42872727,23.0854545 10.3070303,21.2087273 12.6139394,21.2087273 C13.513697,21.2087273 14.3898182,21.5018182 15.1099394,22.0375758 C17.7052121,20.4602424 21.0127273,19.54 24.4904242,19.429697 L27.1566061,11.8518788 L33.546303,13.3787879 C34.1482424,12.2395152 35.3253333,11.5193939 36.6316364,11.5193939 C38.5572121,11.5193939 40.1250909,13.0872727 40.1250909,15.0128485 C40.1250909,16.9384242 38.5572121,18.506303 36.6316364,18.506303 C34.8195152,18.506303 33.3225455,17.1164848 33.1539394,15.3469091 L28.4471515,14.2218182 L26.6035152,19.4596364 C29.8338182,19.6644848 32.8986667,20.5752727 35.3190303,22.0549091 C36.0438788,21.5065455 36.9278788,21.2071515 37.8402424,21.2071515 C40.1487273,21.2071515 42.0254545,23.0854545 42.0254545,25.3923636 C42.0286061,26.7538182 41.3778182,28.0033939 40.2763636,28.7912727 L40.2763636,28.7912727 Z M10.4346667,25.3939394 C10.4346667,25.8130909 10.5575758,26.2196364 10.7829091,26.5678788 C11.3344242,25.3986667 12.1979394,24.2972121 13.3214545,23.329697 C13.0961212,23.2524848 12.8581818,23.2130909 12.6155152,23.2130909 C11.4116364,23.2146667 10.4346667,24.1916364 10.4346667,25.3939394 L10.4346667,25.3939394 Z M38.3318788,29.7099394 C38.3318788,25.1386667 32.4401212,21.4214545 25.1995152,21.4214545 C17.9589091,21.4214545 12.0671515,25.1402424 12.0671515,29.7099394 C12.0671515,34.2796364 17.9589091,37.9984242 25.1995152,37.9984242 C32.441697,37.9984242 38.3318788,34.2812121 38.3318788,29.7099394 L38.3318788,29.7099394 Z M37.0964848,23.3454545 C38.226303,24.3224242 39.0929697,25.4380606 39.6397576,26.6198788 C39.8871515,26.2606061 40.0226667,25.8351515 40.0226667,25.3939394 C40.0226667,24.1916364 39.0441212,23.2130909 37.8433939,23.2130909 C37.5849697,23.2146667 37.3344242,23.2587879 37.0964848,23.3454545 L37.0964848,23.3454545 Z M35.145697,15.016 C35.145697,15.8369697 35.8138182,16.5035152 36.6332121,16.5035152 C37.4526061,16.5035152 38.1207273,15.8353939 38.1207273,15.016 C38.1207273,14.1950303 37.4526061,13.5284848 36.6332121,13.5284848 C35.8138182,13.5284848 35.145697,14.1950303 35.145697,15.016 L35.145697,15.016 Z M30.2403636,32.8299394 C29.9693333,32.8299394 29.7140606,32.9370909 29.5312727,33.1230303 C29.477697,33.1766061 28.1650909,34.4104242 25.1727273,34.4104242 C22.2166061,34.4104242 21.0253333,33.1750303 21.0221818,33.1718788 C20.8315152,32.9528485 20.5557576,32.8283636 20.2658182,32.8283636 C20.0278788,32.8283636 19.7962424,32.9134545 19.6150303,33.0678788 C19.4117576,33.2412121 19.2872727,33.4854545 19.2667879,33.7517576 C19.246303,34.0196364 19.3313939,34.2780606 19.5047273,34.4813333 C19.552,34.5364848 19.9884848,35.0312727 20.9134545,35.5024242 C22.1,36.1075152 23.5323636,36.4147879 25.1727273,36.4147879 C26.8020606,36.4147879 28.2533333,36.1122424 29.484,35.5181818 C30.4389091,35.0564848 30.9132121,34.5758788 30.9652121,34.522303 C31.3418182,34.1283636 31.3307879,33.4949091 30.9384242,33.112 C30.7509091,32.9307879 30.5035152,32.8299394 30.2403636,32.8299394 L30.2403636,32.8299394 Z M30.2088485,25.2347879 C28.7024242,25.2347879 27.4780606,26.4591515 27.4780606,27.964 C27.4780606,29.4688485 28.7024242,30.6932121 30.2088485,30.6932121 C31.713697,30.6932121 32.9380606,29.4688485 32.9380606,27.964 C32.9380606,26.4591515 31.713697,25.2347879 30.2088485,25.2347879 L30.2088485,25.2347879 Z" id="Shape" fill="#FFFFFF"></path>
                    </g>
                </g>
            </g>
        </g>
    </g>
</svg>