<?xml version="1.0" encoding="UTF-8" standalone="no"?>
<svg width="129px" height="116px" viewBox="0 0 129 116" version="1.1" xmlns="http://www.w3.org/2000/svg" xmlns:xlink="http://www.w3.org/1999/xlink" xmlns:sketch="http://www.bohemiancoding.com/sketch/ns">
    <!-- Generator: Sketch 3.5.1 (25234) - http://www.bohemiancoding.com/sketch -->
    <title>Theft Prevention</title>
    <desc>Created with Sketch.</desc>
    <defs></defs>
    <g id="Page-1" stroke="none" stroke-width="1" fill="none" fill-rule="evenodd" sketch:type="MSPage">
        <g id="v5.1_ZM_Landing" sketch:type="MSArtboardGroup" transform="translate(-506.000000, -1044.000000)">
            <g id="Group" sketch:type="MSLayerGroup" transform="translate(176.000000, 854.000000)">
                <g id="Theft-Prevention" sketch:type="MSShapeGroup">
                    <g transform="translate(0.000000, 153.000000)">
                        <g>
                            <g transform="translate(330.000000, 37.000000)">
                                <g id="Group">
                                    <path d="M9.32182867,0 C4.34766084,0 0,3.84650584 0,8.82457588 L0,88.2931518 C0,93.2712218 4.34766084,97.4941634 9.32182867,97.4941634 L52.3216783,97.4941634 L52.3216783,102.910506 L35.9499545,102.910506 C33.4628706,102.910506 31.1223776,105.038677 31.1223776,107.527486 L31.1223776,111.238132 C31.1223776,113.726942 33.4628706,115.549089 35.9499545,115.549089 L93.3504441,115.549089 C95.837528,115.549089 97.8776224,113.726942 97.8776224,111.238132 L97.8776224,107.527486 C97.8776224,105.038677 95.837528,102.910506 93.3504441,102.910506 L76.6783217,102.910506 L76.6783217,97.4941634 L119.979021,97.4941634 C124.953189,97.4941634 129,93.2712218 129,88.2931518 L129,8.82457588 C129,3.84650584 124.953189,0 119.979021,0 L9.32182867,0 Z M109.844515,85.307393 L19.6065341,85.307393 C15.7532793,85.307393 12.6293706,82.2760467 12.6293706,78.536965 L12.6293706,18.5058366 C12.6293706,14.7667549 15.7532793,11.7354086 19.6065341,11.7354086 L109.844515,11.7354086 C113.69777,11.7354086 116.821678,14.7667549 116.821678,18.5058366 L116.821678,78.536965 C116.821678,82.2760467 113.69777,85.307393 109.844515,85.307393 Z" id="Shape" stroke="#FFFFFF" stroke-width="3" fill="#03A9F4"></path>
                                    <rect id="Rectangle-39" fill="#FFFFFF" x="9" y="8" width="112" height="80.4363636" rx="4"></rect>
                                    <path d="M103.102122,34.3035019 L26.1987273,34.3035019 C22.8654755,34.3035019 19.8461538,37.1335409 19.8461538,40.3995953 L19.8461538,60.7537588 C19.8461538,64.1299455 23.8406434,66.3501946 27.1495385,66.3501946 L57.635486,66.3501946 C60.2407448,66.3501946 62.0097587,63.7070195 63.1806818,61.9133074 C63.5072413,61.4131984 64.0566189,61.1473463 64.6501993,61.1473463 C65.246486,61.1473463 65.8017273,61.3996576 66.1287378,61.8957043 C67.6758357,64.2694163 69.263528,66.3497432 71.6662657,66.3497432 L102.150409,66.3497432 C105.459755,66.3497432 109.153395,64.1294942 109.153395,60.7533074 L109.153395,40.399144 C109.153846,37.1335409 106.435374,34.3035019 103.102122,34.3035019 L103.102122,34.3035019 Z M98.7797203,47.7315175 L98.7797203,53.2354241 C98.7797203,55.021463 97.413493,56.4202335 95.5222448,56.4202335 L78.4662797,56.4202335 C76.570972,56.4202335 74.8741259,55.021463 74.8741259,53.2354241 L74.8741259,47.7315175 C74.8741259,45.9463813 76.570972,44.6848249 78.4662797,44.6848249 L95.5222448,44.6848249 C97.413493,44.6848249 98.7797203,45.9463813 98.7797203,47.7315175 L98.7797203,47.7315175 Z M54.1258741,47.7315175 L54.1258741,53.2354241 C54.1258741,55.021463 52.7339371,56.4202335 50.8417867,56.4202335 L33.7804091,56.4202335 C31.8887098,56.4202335 30.2202797,55.021463 30.2202797,53.2354241 L30.2202797,47.7315175 C30.2202797,45.9463813 31.8882587,44.6848249 33.7804091,44.6848249 L50.8417867,44.6848249 C52.7339371,44.6848249 54.1258741,45.9463813 54.1258741,47.7315175 L54.1258741,47.7315175 Z" id="Shape" fill="#6B6F7A"></path>
                                </g>
                            </g>
                        </g>
                    </g>
                </g>
            </g>
        </g>
    </g>
</svg>