<?xml version="1.0" encoding="UTF-8" standalone="no"?>
<svg width="44px" height="35px" viewBox="0 0 44 35" version="1.1" xmlns="http://www.w3.org/2000/svg" xmlns:xlink="http://www.w3.org/1999/xlink" xmlns:sketch="http://www.bohemiancoding.com/sketch/ns">
    <!-- Generator: Sketch 3.5.1 (25234) - http://www.bohemiancoding.com/sketch -->
    <title>Tick</title>
    <desc>Created with Sketch.</desc>
    <defs></defs>
    <g id="Page-1" stroke="none" stroke-width="1" fill="none" fill-rule="evenodd" sketch:type="MSPage">
        <g id="v5.1_ZM_Landing" sketch:type="MSArtboardGroup" transform="translate(-187.000000, -1736.000000)" fill="#03A9F4">
            <g id="Group" sketch:type="MSLayerGroup" transform="translate(176.000000, 854.000000)">
                <g id="Why-ZoneMinder-Is-So-+-It's-free.-No-monthl" sketch:type="MSShapeGroup">
                    <g transform="translate(11.000000, 0.000000)">
                        <g id="Group-+-Group" transform="translate(0.000000, 716.000000)">
                            <g id="Group" transform="translate(0.000000, 1.000000)">
                                <path d="M42.7455004,169.8609 L38.3391004,165.4551 C37.7301004,164.8479 36.7479004,164.8479 36.1383004,165.4575 L14.6559004,186.9351 L7.06230044,179.3439 C6.45270044,178.7343 5.47050044,178.7343 4.86150044,179.3415 L0.455100444,183.7479 C-0.152099556,184.3575 -0.152099556,185.3415 0.457500444,185.9511 L12.9963004,198.4875 C13.4463004,198.9375 14.0301004,199.5309 14.6277004,199.5309 C15.2229004,199.5309 15.8697004,198.9375 16.3221004,198.4875 L42.7479004,172.0641 C43.3527004,171.4551 43.3527004,170.4705 42.7455004,169.8609 L42.7455004,169.8609 Z" id="Tick"></path>
                            </g>
                        </g>
                    </g>
                </g>
            </g>
        </g>
    </g>
</svg>