<?xml version="1.0" encoding="UTF-8" standalone="no"?>
<svg width="50px" height="50px" viewBox="0 0 50 50" version="1.1" xmlns="http://www.w3.org/2000/svg" xmlns:xlink="http://www.w3.org/1999/xlink" xmlns:sketch="http://www.bohemiancoding.com/sketch/ns">
    <!-- Generator: Sketch 3.5.1 (25234) - http://www.bohemiancoding.com/sketch -->
    <title>twitter</title>
    <desc>Created with Sketch.</desc>
    <defs></defs>
    <g id="Page-1" stroke="none" stroke-width="1" fill="none" fill-rule="evenodd" sketch:type="MSPage">
        <g id="v5.1_ZM_Landing" sketch:type="MSArtboardGroup" transform="translate(-620.000000, -2362.000000)">
            <g id="Group" sketch:type="MSLayerGroup" transform="translate(140.000000, 2288.000000)">
                <g id="twitter" transform="translate(480.000000, 74.000000)" sketch:type="MSShapeGroup">
                    <circle id="base" fill="#50ABF1" cx="25" cy="25" r="25"></circle>
                    <path d="M37.993974,18.3059737 C37.110861,18.6972878 36.1632935,18.9626725 35.1676988,19.0811528 C36.1842687,18.4724027 36.9624275,17.5068397 37.3312374,16.3598318 C36.3776714,16.9235735 35.3251105,17.3329223 34.2035864,17.5548277 C33.3054968,16.5967531 32.0280508,16 30.6111494,16 C27.8928473,16 25.688809,18.2040383 25.688809,20.9208506 C25.688809,21.3061662 25.7322883,21.6825037 25.8162674,22.0423747 C21.7260723,21.8369358 18.0991733,19.8773071 15.6717397,16.8995795 C15.2474142,17.6252807 15.0060235,18.4708737 15.0060235,19.3735112 C15.0060235,21.0812812 15.8756497,22.5881209 17.1950851,23.4697049 C16.3884237,23.4427312 15.6297502,23.2208258 14.965563,22.8519766 L14.965563,22.9134515 C14.965563,25.2974057 16.6628258,27.2870269 18.9133231,27.7398551 C18.5009946,27.8508078 18.0662011,27.9122827 17.6163918,27.9122827 C17.2985495,27.9122827 16.9911752,27.8808003 16.6897995,27.8208153 C17.3165058,29.7774643 19.1337387,31.200325 21.2868093,31.2393349 C19.6030334,32.5587704 17.4799552,33.3429276 15.1739816,33.3429276 C14.776669,33.3429276 14.3853156,33.3189336 14,33.2754543 C16.1785545,34.6743601 18.7649287,35.4899998 21.5447057,35.4899998 C30.5992309,35.4899998 35.5485842,27.9902632 35.5485842,21.4861213 L35.5320785,20.8489078 C36.4991313,20.1591583 37.3357461,19.292551 37.993974,18.3059737 L37.993974,18.3059737 Z" id="twitter-icon" fill="#FFFFFF"></path>
                </g>
            </g>
        </g>
    </g>
</svg>