<?xml version="1.0" encoding="utf-8"?>
<!-- www.vectorico.com  -->
<svg version="1.1" id="youtube-red-circle" xmlns="http://www.w3.org/2000/svg" xmlns:xlink="http://www.w3.org/1999/xlink" x="0px"
	 y="0px" viewBox="0 0 64 64" style="enable-background:new 0 0 64 64;" xml:space="preserve">
<style type="text/css">
	.st0{fill:#FF0000;}
	.st1{fill:#FFFFFF;}
</style>
<circle class="st0" cx="32" cy="32" r="32"/>
<title>youtube red circle</title>
<path class="st1" d="M53.9,21c-0.5-2-2.1-3.5-4-4C46.3,16,32,16,32,16s-14.3,0-17.9,1c-2,0.5-3.5,2.1-4,4c-1,3.6-1,11-1,11
	s0,7.4,1,11c0.5,2,2.1,3.5,4,4c3.6,1,17.9,1,17.9,1s14.3,0,17.9-1c2-0.5,3.5-2.1,4-4c1-3.6,1-11,1-11S54.9,24.6,53.9,21z"/>
<polygon class="st0" points="27.4,38.9 39.3,32 27.4,25.1 "/>
</svg>
