<?xml version="1.0" encoding="UTF-8" standalone="no"?>
<svg width="534px" height="81px" viewBox="0 0 534 81" version="1.1" xmlns="http://www.w3.org/2000/svg" xmlns:xlink="http://www.w3.org/1999/xlink" xmlns:sketch="http://www.bohemiancoding.com/sketch/ns">
    <!-- Generator: Sketch 3.5.2 (25235) - http://www.bohemiancoding.com/sketch -->
    <title>Group 5</title>
    <desc>Created with Sketch.</desc>
    <defs></defs>
    <g id="Page-1" stroke="none" stroke-width="1" fill="none" fill-rule="evenodd" sketch:type="MSPage">
        <g id="v5.1_ZM_Landing" sketch:type="MSArtboardGroup" transform="translate(-448.000000, -202.000000)">
            <g id="Group-3" sketch:type="MSLayerGroup" transform="translate(448.000000, 202.000000)">
                <g id="Group-5" sketch:type="MSShapeGroup">
                    <path d="M187.834127,24.3306388 C189.386627,22.3731388 188.644127,20.2806388 185.876627,20.2806388 L153.746627,20.2806388 C150.709127,20.4831388 150.776627,24.7356388 153.746627,24.7356388 L181.084127,24.7356388 L150.844127,59.3631388 C149.359127,61.1856388 150.169127,63.2781388 152.801627,63.2781388 L186.146627,63.2781388 C189.386627,63.0756388 189.319127,58.6206388 186.146627,58.6206388 L157.324127,58.6206388 L187.834127,24.3306388 Z M210.446627,63.8856388 C215.779127,63.8856388 220.639127,61.7931388 223.946627,57.8106388 C226.916627,54.2331388 228.266627,49.9131388 227.996627,44.8506388 C227.389127,37.2906388 222.799127,31.0806388 215.441627,28.9881388 C213.686627,28.5156388 212.066627,28.3806388 210.446627,28.3806388 C208.759127,28.3806388 206.936627,28.5156388 205.316627,28.9881388 C197.891627,31.0806388 193.504127,37.3581388 192.829127,44.8506388 C192.626627,49.9131388 193.909127,54.2331388 196.946627,57.8106388 C200.254127,61.7931388 205.046627,63.8856388 210.446627,63.8856388 L210.446627,63.8856388 Z M214.091627,33.4431388 C219.829127,34.9281388 223.136627,40.2606388 223.136627,46.4031388 C223.136627,49.3056388 222.056627,52.5456388 220.166627,54.8406388 C217.804127,57.5406388 214.091627,59.2956388 210.446627,59.2956388 C206.734127,59.2956388 203.156627,57.6756388 200.794127,54.8406388 C198.769127,52.4781388 197.824127,49.3056388 197.824127,46.2681388 C197.824127,40.1931388 201.131627,34.9281388 206.801627,33.4431388 C207.814127,33.1731388 209.096627,32.9706388 210.379127,32.9706388 C211.661627,32.9706388 213.011627,33.1731388 214.091627,33.4431388 L214.091627,33.4431388 Z M264.176627,61.3206388 C264.176627,62.8056388 265.189127,63.6831388 266.674127,63.6831388 C268.226627,63.6831388 269.104127,62.8056388 269.104127,61.3206388 L269.104127,43.4331388 C269.104127,33.7131388 261.611627,28.3131388 253.781627,28.3131388 C248.516627,28.3131388 243.319127,30.4056388 240.889127,35.3331388 L240.889127,31.1481388 C240.889127,27.9081388 236.029127,27.9756388 236.029127,31.0806388 L236.029127,61.3206388 C236.029127,62.8056388 237.041627,63.6831388 238.594127,63.6831388 C240.146627,63.6831388 241.024127,62.8056388 241.024127,61.3206388 L241.024127,45.6606388 C241.024127,38.3031388 247.166627,32.9031388 253.714127,32.9031388 C259.181627,32.9031388 264.176627,37.2231388 264.176627,43.4331388 L264.176627,61.3206388 Z M300.154127,29.0556388 C296.846627,28.1781388 293.201627,28.1106388 290.029127,29.0556388 C277.474127,32.5656388 274.301627,48.0906388 281.591627,57.6756388 C284.764127,61.6581388 290.029127,63.6831388 295.294127,63.6831388 C299.681627,63.7506388 304.204127,62.5356388 307.309127,59.6331388 C309.941627,56.9331388 306.431627,54.1656388 304.069127,56.3256388 C301.436627,58.3506388 298.196627,59.1606388 295.091627,59.1606388 C288.341627,59.1606388 283.616627,54.5706388 282.739127,49.0356388 L309.401627,49.0356388 C312.169127,49.0356388 312.844127,47.4156388 312.709127,45.9306388 L312.709127,45.9981388 C312.574127,37.3581388 307.849127,31.1481388 300.221627,29.0556388 L300.154127,29.0556388 Z M291.514127,33.5106388 C293.809127,32.8356388 296.576627,32.8356388 298.804127,33.4431388 L298.736627,33.4431388 C304.001627,34.7931388 307.511627,39.1806388 307.984127,44.9181388 L282.536627,44.9181388 C282.941627,39.4506388 286.114127,34.9281388 291.514127,33.5106388 L291.514127,33.5106388 Z M343.151627,47.0106388 L326.681627,21.3606388 C325.331627,18.9306388 322.091627,19.6731388 322.091627,22.5756388 L322.091627,61.4556388 C322.091627,64.6956388 327.019127,64.6956388 327.019127,61.4556388 L327.019127,30.8106388 L340.789127,52.2756388 C341.801627,54.2331388 344.366627,54.2331388 345.446627,52.2756388 L359.216627,30.7431388 L359.216627,61.4556388 C359.216627,64.6956388 364.144127,64.6956388 364.144127,61.4556388 L364.144127,22.5756388 C364.144127,19.7406388 361.039127,18.9306388 359.486627,21.3606388 L343.151627,47.0106388 Z M374.944127,61.5231388 C374.944127,64.4256388 379.871627,64.4931388 379.871627,61.5231388 L379.871627,31.0806388 C379.871627,28.1781388 374.944127,28.2456388 374.944127,31.1481388 L374.944127,61.5231388 Z M379.939127,20.8206388 C379.939127,17.7156388 374.876627,17.7156388 374.876627,20.8206388 L374.876627,23.8581388 C374.876627,26.9631388 379.939127,26.8956388 379.939127,23.8581388 L379.939127,20.8206388 Z M417.266627,61.3206388 C417.266627,62.8056388 418.279127,63.6831388 419.764127,63.6831388 C421.316627,63.6831388 422.194127,62.8056388 422.194127,61.3206388 L422.194127,43.4331388 C422.194127,33.7131388 414.701627,28.3131388 406.871627,28.3131388 C401.606627,28.3131388 396.409127,30.4056388 393.979127,35.3331388 L393.979127,31.1481388 C393.979127,27.9081388 389.119127,27.9756388 389.119127,31.0806388 L389.119127,61.3206388 C389.119127,62.8056388 390.131627,63.6831388 391.684127,63.6831388 C393.236627,63.6831388 394.114127,62.8056388 394.114127,61.3206388 L394.114127,45.6606388 C394.114127,38.3031388 400.256627,32.9031388 406.804127,32.9031388 C412.271627,32.9031388 417.266627,37.2231388 417.266627,43.4331388 L417.266627,61.3206388 Z M430.699127,45.3231388 C430.496627,53.1531388 434.209127,59.8356388 441.566627,62.8731388 L441.499127,62.8056388 C443.591627,63.6831388 445.886627,64.0881388 447.979127,64.0881388 C452.029127,64.0881388 456.754127,62.3331388 459.049127,58.1481388 L459.049127,61.3206388 C459.049127,62.8056388 459.791627,63.6831388 461.344127,63.6831388 C462.896627,63.6831388 463.841627,62.8056388 463.841627,61.3206388 L463.841627,20.5506388 C463.841627,17.4456388 458.914127,17.4456388 458.914127,20.5506388 L458.914127,33.9831388 C456.889127,30.4056388 452.501627,28.5156388 447.979127,28.5156388 C437.854127,28.5156388 430.969127,35.7381388 430.699127,45.3231388 L430.699127,45.3231388 Z M447.574127,59.4306388 C445.009127,59.2281388 442.579127,58.4181388 440.621627,56.8656388 C436.976627,53.8281388 435.559127,49.7781388 435.626627,45.3906388 C435.694127,43.6356388 436.099127,41.8131388 436.639127,40.3956388 C438.596627,35.7381388 443.389127,33.1731388 448.181627,33.1731388 C454.324127,33.4431388 458.914127,37.6281388 458.914127,43.5681388 L458.914127,48.9006388 C458.914127,55.5156388 453.716627,59.4306388 447.574127,59.4306388 L447.574127,59.4306388 Z M494.891627,29.0556388 C491.584127,28.1781388 487.939127,28.1106388 484.766627,29.0556388 C472.211627,32.5656388 469.039127,48.0906388 476.329127,57.6756388 C479.501627,61.6581388 484.766627,63.6831388 490.031627,63.6831388 C494.419127,63.7506388 498.941627,62.5356388 502.046627,59.6331388 C504.679127,56.9331388 501.169127,54.1656388 498.806627,56.3256388 C496.174127,58.3506388 492.934127,59.1606388 489.829127,59.1606388 C483.079127,59.1606388 478.354127,54.5706388 477.476627,49.0356388 L504.139127,49.0356388 C506.906627,49.0356388 507.581627,47.4156388 507.446627,45.9306388 L507.446627,45.9981388 C507.311627,37.3581388 502.586627,31.1481388 494.959127,29.0556388 L494.891627,29.0556388 Z M486.251627,33.5106388 C488.546627,32.8356388 491.314127,32.8356388 493.541627,33.4431388 L493.474127,33.4431388 C498.739127,34.7931388 502.249127,39.1806388 502.721627,44.9181388 L477.274127,44.9181388 C477.679127,39.4506388 480.851627,34.9281388 486.251627,33.5106388 L486.251627,33.5106388 Z M520.676627,31.1481388 C520.676627,27.9081388 515.884127,28.1781388 515.884127,31.1481388 L515.884127,61.0506388 C515.884127,62.4681388 516.896627,63.4131388 518.381627,63.4131388 C519.664127,63.4131388 520.811627,62.4681388 520.811627,61.0506388 L520.811627,45.7956388 C520.811627,38.9781388 523.781627,33.4431388 530.734127,33.4431388 C532.286627,33.4431388 533.299127,32.6331388 533.299127,31.1481388 C533.299127,29.5956388 532.286627,28.7856388 530.734127,28.7856388 C526.886627,28.7856388 522.836627,30.0006388 520.676627,34.5231388 L520.676627,31.1481388 Z" id="ZoneMinder" fill="#FFFFFF"></path>
                    <g id="Logo">
                        <path d="M0.0163040308,0.0516837794 L5.33994461,75.4994303 L107.487064,80.5178797 L125.368382,25.4579799 C127.925634,17.5837276 123.306579,10.6263963 115.056358,9.91876775 L0.0163040308,0.0516837794 Z" id="Path-33" fill="#03A9F4"></path>
                        <path d="M81.244837,45.6275515 L64.8500425,20.0231401 C63.5062069,17.597459 60.2810014,18.3386393 60.2810014,21.2359806 L60.2810014,60.046878 C60.2810014,63.2811194 65.1860014,63.2811194 65.1860014,60.046878 L65.1860014,29.4563443 L78.8931247,50.8831939 C79.9010014,52.8372147 82.4542891,52.8372147 83.5293575,50.8831939 L97.2364808,29.3889643 L97.2364808,60.046878 C97.2364808,63.2811194 102.141481,63.2811194 102.141481,60.046878 L102.141481,21.2359806 C102.141481,18.4060193 99.0506589,17.597459 97.505248,20.0231401 L81.244837,45.6275515 Z" id="ZM" fill="#FFFFFF"></path>
                        <path d="M52.4867548,23.9878614 C54.0321658,22.0338405 53.2930562,19.9450596 50.5381932,19.9450596 L18.5549055,19.9450596 C15.5312754,20.1471997 15.5984671,24.3921416 18.5549055,24.3921416 L45.7675767,24.3921416 L15.6656589,58.958097 C14.1874397,60.7773578 14.9937411,62.8661388 17.6142206,62.8661388 L62.7521658,62.8661388 C65.9773712,62.6639987 65.9101795,58.2169167 62.7521658,58.2169167 L22.1160699,58.2169167 L52.4867548,23.9878614 Z" id="Path" fill="#FFFFFF"></path>
                    </g>
                </g>
            </g>
        </g>
    </g>
</svg>